REM DIRINDEX 1\2,1\3,1\4,1\5
REM DIRNAME cjc005,folder01,folder02,folder03,folder04
TITLE ""
FILE "P1Q_t_1352-1361.mp3" MP3
  TRACK 01 AUDIO
    TITLE "3:cjc005_4963"
    INDEX 01 00:00:00
  TRACK 02 AUDIO
    TITLE "0:"
    INDEX 01 00:00:66
  TRACK 03 AUDIO
    TITLE "4:cjc005_4964"
    INDEX 01 00:01:21
  TRACK 04 AUDIO
    TITLE "0:"
    INDEX 01 00:02:06
  TRACK 05 AUDIO
    TITLE "5:cjc005_4965"
    INDEX 01 00:02:34
  TRACK 06 AUDIO
    TITLE "0:"
    INDEX 01 00:05:16
  TRACK 07 AUDIO
    TITLE "3:cjc005_4966"
    INDEX 01 00:06:00
  TRACK 08 AUDIO
    TITLE "0:"
    INDEX 01 00:07:15
  TRACK 09 AUDIO
    TITLE "4:cjc005_4967"
    INDEX 01 00:07:43
  TRACK 10 AUDIO
    TITLE "0:"
    INDEX 01 00:08:34
  TRACK 11 AUDIO
    TITLE "5:cjc005_4968"
    INDEX 01 00:08:58
  TRACK 12 AUDIO
    TITLE "0:"
    INDEX 01 00:13:37
  TRACK 13 AUDIO
    TITLE "3:cjc005_4969"
    INDEX 01 00:14:13
  TRACK 14 AUDIO
    TITLE "0:"
    INDEX 01 00:15:42
  TRACK 15 AUDIO
    TITLE "4:cjc005_4970"
    INDEX 01 00:15:68
  TRACK 16 AUDIO
    TITLE "0:"
    INDEX 01 00:17:25
  TRACK 17 AUDIO
    TITLE "5:cjc005_4971"
    INDEX 01 00:17:53
  TRACK 18 AUDIO
    TITLE "0:"
    INDEX 01 00:22:01
  TRACK 19 AUDIO
    TITLE "3:cjc005_4972"
    INDEX 01 00:22:58
  TRACK 20 AUDIO
    TITLE "0:"
    INDEX 01 00:23:69
  TRACK 21 AUDIO
    TITLE "4:cjc005_4973"
    INDEX 01 00:24:16
  TRACK 22 AUDIO
    TITLE "0:"
    INDEX 01 00:25:15
  TRACK 23 AUDIO
    TITLE "5:cjc005_4974"
    INDEX 01 00:25:41
  TRACK 24 AUDIO
    TITLE "0:"
    INDEX 01 00:30:03
  TRACK 25 AUDIO
    TITLE "3:cjc005_4975"
    INDEX 01 00:30:57
  TRACK 26 AUDIO
    TITLE "0:"
    INDEX 01 00:32:09
  TRACK 27 AUDIO
    TITLE "4:cjc005_4976"
    INDEX 01 00:32:33
  TRACK 28 AUDIO
    TITLE "0:"
    INDEX 01 00:33:36
  TRACK 29 AUDIO
    TITLE "5:cjc005_4977"
    INDEX 01 00:33:64
  TRACK 30 AUDIO
    TITLE "0:"
    INDEX 01 00:37:48
  TRACK 31 AUDIO
    TITLE "3:cjc005_4978"
    INDEX 01 00:38:31
  TRACK 32 AUDIO
    TITLE "0:"
    INDEX 01 00:39:45
  TRACK 33 AUDIO
    TITLE "4:cjc005_4979"
    INDEX 01 00:39:72
  TRACK 34 AUDIO
    TITLE "0:"
    INDEX 01 00:41:06
  TRACK 35 AUDIO
    TITLE "5:cjc005_4980"
    INDEX 01 00:41:32
  TRACK 36 AUDIO
    TITLE "0:"
    INDEX 01 00:46:51
  TRACK 37 AUDIO
    TITLE "3:cjc005_4981"
    INDEX 01 00:47:23
  TRACK 38 AUDIO
    TITLE "0:"
    INDEX 01 00:48:40
  TRACK 39 AUDIO
    TITLE "4:cjc005_4982"
    INDEX 01 00:48:65
  TRACK 40 AUDIO
    TITLE "0:"
    INDEX 01 00:50:01
  TRACK 41 AUDIO
    TITLE "5:cjc005_4983"
    INDEX 01 00:50:25
  TRACK 42 AUDIO
    TITLE "0:"
    INDEX 01 00:53:66
  TRACK 43 AUDIO
    TITLE "3:cjc005_4984"
    INDEX 01 00:54:44
  TRACK 44 AUDIO
    TITLE "0:"
    INDEX 01 00:55:51
  TRACK 45 AUDIO
    TITLE "4:cjc005_4985"
    INDEX 01 00:56:00
  TRACK 46 AUDIO
    TITLE "0:"
    INDEX 01 00:57:09
  TRACK 47 AUDIO
    TITLE "5:cjc005_4986"
    INDEX 01 00:57:33
  TRACK 48 AUDIO
    TITLE "0:"
    INDEX 01 01:01:40
  TRACK 49 AUDIO
    TITLE "3:cjc005_4987"
    INDEX 01 01:02:14
  TRACK 50 AUDIO
    TITLE "0:"
    INDEX 01 01:03:22
  TRACK 51 AUDIO
    TITLE "4:cjc005_4988"
    INDEX 01 01:03:49
  TRACK 52 AUDIO
    TITLE "0:"
    INDEX 01 01:04:54
  TRACK 53 AUDIO
    TITLE "5:cjc005_4989"
    INDEX 01 01:05:03
  TRACK 54 AUDIO
    TITLE "0:"
    INDEX 01 01:10:31
  TRACK 55 AUDIO
    TITLE "3:cjc005_4990"
    INDEX 01 01:11:07
  TRACK 56 AUDIO
    TITLE "0:"
    INDEX 01 01:12:24
  TRACK 57 AUDIO
    TITLE "4:cjc005_4991"
    INDEX 01 01:12:48
  TRACK 58 AUDIO
    TITLE "0:"
    INDEX 01 01:13:67
  TRACK 59 AUDIO
    TITLE "5:cjc005_4992"
    INDEX 01 01:14:16
  TRACK 60 AUDIO
    TITLE "0:"
    INDEX 01 01:17:12
